<svg id="Layer_1" data-name="Layer 1" xmlns="http://www.w3.org/2000/svg" viewBox="0 0 600 400">
  <g>
    <path d="M0,0V388.9H310.5c27.7,0,52.9-10.5,71.1-29.6,16.6-17.4,26.1-40.6,26.1-63.7V0Z" style="fill: #fff"/>
    <path d="M0,0V388.9H310.5c27.7,0,52.9-10.5,71.1-29.6,16.6-17.4,26.1-40.6,26.1-63.7V0ZM403,4.6V174.5H4.6V4.6Z" style="fill: #593289"/>
    <path d="M80.1,58.1c-19.7,0-31.1,12-35.5,17.7v-43a4.1,4.1,0,0,0-4.1-4.2,4.2,4.2,0,0,0-4.2,4.2v70.5a43.2,43.2,0,0,0,43.8,42.6c26.2,0,43.8-22.9,43.8-44.2C123.9,74.8,101.1,58.1,80.1,58.1Zm-.1,79a35.4,35.4,0,1,1,35.2-35.4A35.3,35.3,0,0,1,80,137.1ZM216.8,102a4.1,4.1,0,0,1-4.4,4.2H166.8a4.3,4.3,0,1,1-.1-8.6h41.2a35.3,35.3,0,1,0-4.9,22.8,4.2,4.2,0,0,1,2.8-1.9,4.1,4.1,0,0,1,3.2.7,4.3,4.3,0,0,1,1.2,5.9,43.9,43.9,0,1,1,6.6-23.1Zm24.5,36.8h0c-.3,3.4-3.8,7.1-8.4,7.1h-.1c-4.7,0-8.1-3.7-8.4-7.1V65.4c.3-3.4,3.7-7.1,8.4-7.1h.1c4.6,0,8.1,3.7,8.4,7.1Zm111.5,4.7a30.4,30.4,0,0,1-11.5,2.4,27.3,27.3,0,0,1-21.8-11.3c-3.1-4.7-32.6-51.3-33.9-53.3,0-.2-3.2-6.8-9.6-6.4-10.9,1-10.3,10.1-10.3,10.5v52.8c0,4.2-3.8,7.7-8.3,7.7h0c-4.9,0-8.2-3.5-8.4-6.7V83.9c0-.2.3-17.1,16.5-23.7s29.1,3,33.5,10.7l33.8,53.2c.2.3,4.9,7.9,14.1,3.6a9.9,9.9,0,0,0,5.4-8.3V65.3c.2-3.4,3.7-7.1,8.3-7.2h0c4.7.1,8.1,3.7,8.3,7.1v54.1C368.9,119.4,369.8,136.6,352.8,143.5Z" style="fill: #593289"/>
    <path d="M59.3,273.9c-5.8,0-10.1-1.3-12.5-3.8a6.6,6.6,0,0,1-2.1-4.5,12.4,12.4,0,0,1,3.1-8.7c2.5-2.7,6.4-4.1,11.6-4.1s8.6,1.3,11.1,4,3.3,10,3.3,10.1a4.2,4.2,0,0,0,4.2,4.2,4.1,4.1,0,0,0,4.1-4.2c0-22.2-21.9-22.4-22.8-22.4h-.1c-22.2,0-22.9,18.8-22.9,21,0,6.3,4.9,16.9,23.1,16.9,6.1,0,10.5,1.3,13,4a7.3,7.3,0,0,1,2.3,5.7,10.9,10.9,0,0,1-3,8.2c-2.6,2.7-6.7,4.1-12.2,4.1h-.1c-4.9,0-8.7-1.4-11.3-4.1a13.1,13.1,0,0,1-3.3-9.1,4.3,4.3,0,0,0-8.5-.1,20.7,20.7,0,0,0,5.8,15,23.7,23.7,0,0,0,17.2,6.8c17.7,0,24-11.2,24-20.7C83.3,281.1,73.9,273.9,59.3,273.9Zm285.7,0c-5.9,0-10.1-1.3-12.6-3.8a6.8,6.8,0,0,1-2-4.5,11.8,11.8,0,0,1,3.1-8.7c2.5-2.7,6.4-4.1,11.6-4.1s8.6,1.4,11.1,4,3.3,10,3.3,10.1a4.2,4.2,0,0,0,4.2,4.2,4.2,4.2,0,0,0,4.1-4.2c0-22.2-21.9-22.4-22.8-22.4h-.1c-22.3,0-22.9,18.8-22.9,21,0,6.3,4.8,16.9,23.1,16.9,6.1,0,10.5,1.3,13,4a7.7,7.7,0,0,1,2.3,5.8,10.9,10.9,0,0,1-3,8.1c-2.6,2.7-6.7,4.1-12.2,4.1h-.1c-4.9,0-8.7-1.4-11.3-4.1a13.1,13.1,0,0,1-3.3-9.1,4.3,4.3,0,0,0-8.5-.1,20.7,20.7,0,0,0,5.8,15c4.2,4.4,10.3,6.8,17.2,6.8,17.7,0,23.9-11.2,23.9-20.7C368.9,281.1,359.5,273.9,345,273.9ZM114.9,244.5c-13.5,0-22.9,9.4-22.9,23v39.8a4.3,4.3,0,1,0,8.5,0V290.4h14.3a23,23,0,1,0,0-45.9Zm0,37.5H100.6V267.4c0-8.7,5.7-14.6,14.3-14.6a14.6,14.6,0,1,1,0,29.2Zm63.8-37.5a34.2,34.2,0,1,0,34.2,34.2A34.2,34.2,0,0,0,178.7,244.5Zm0,60.1a25.9,25.9,0,1,1,25.9-25.9A25.9,25.9,0,0,1,178.7,304.6ZM251,289a23.1,23.1,0,0,0-8.5-44.5c-13.5,0-23,9.5-23,23.1v39.7a4.3,4.3,0,1,0,8.6,0V290.7h13.6l11.4,18.5a4.9,4.9,0,0,0,2.6,2.1,4.2,4.2,0,0,0,3.3-.5,3.9,3.9,0,0,0,2.1-2.6,4.3,4.3,0,0,0-.5-3.3Zm-22.9-6.8V267.6c0-8.9,5.7-14.8,14.3-14.8a14.7,14.7,0,1,1,0,29.4Zm89.1-32.1a4.3,4.3,0,0,1-4.3,4.3H298.1v52.9a4.3,4.3,0,0,1-8.6,0V254.4H274.6a4.3,4.3,0,0,1-4.2-4.3,4.2,4.2,0,0,1,4.2-4.3h38.3A4.3,4.3,0,0,1,317.2,250.1Z" style="fill: #fff"/>
  </g>
</svg>
