<svg id="svg" xmlns="http://www.w3.org/2000/svg" xmlns:xlink="http://www.w3.org/1999/xlink" width="400" height="119.68992248062015" viewBox="0, 0, 400,119.68992248062015"><g id="svgg"><path id="path0" d="M0.620 26.614 L 0.620 52.607 4.167 56.071 L 7.714 59.534 4.167 63.118 L 0.620 66.703 0.620 92.886 L 0.620 119.070 200.000 119.070 L 399.380 119.070 399.380 59.845 L 399.380 0.620 200.000 0.620 L 0.620 0.620 0.620 26.614 M111.628 28.328 L 111.628 49.213 106.977 53.993 C 104.419 56.622,102.326 59.232,102.326 59.794 C 102.326 60.355,104.419 62.935,106.977 65.527 L 111.628 70.239 111.628 90.933 L 111.628 111.628 59.845 111.628 L 8.062 111.628 8.062 91.052 L 8.062 70.477 12.713 65.697 C 18.471 59.781,18.471 59.558,12.718 53.884 L 8.071 49.302 8.066 28.786 C 8.064 17.501,8.248 8.083,8.475 7.855 C 8.703 7.628,32.005 7.442,60.258 7.442 L 111.628 7.442 111.628 28.328 M391.318 59.845 L 391.318 111.628 255.194 111.628 L 119.070 111.628 119.070 89.165 L 119.070 66.703 115.596 63.192 L 112.122 59.682 115.596 56.318 L 119.070 52.953 119.070 30.508 L 119.070 8.062 255.194 8.062 L 391.318 8.062 391.318 59.845 M30.533 37.364 L 30.698 54.264 38.474 54.436 C 51.725 54.730,54.691 51.944,55.100 38.815 C 55.559 24.083,52.218 20.465,38.154 20.465 L 30.368 20.465 30.533 37.364 M73.358 21.214 C 72.588 22.185,62.636 52.312,62.636 53.673 C 62.636 54.452,63.310 54.600,66.176 54.450 L 69.716 54.264 70.699 50.853 L 71.682 47.442 77.332 47.264 L 82.982 47.087 84.176 50.675 L 85.369 54.264 88.886 54.450 C 92.040 54.616,92.403 54.509,92.403 53.409 C 92.403 52.358,86.961 35.018,83.231 24.186 L 82.057 20.775 78.025 20.594 C 75.284 20.471,73.790 20.669,73.358 21.214 M152.284 24.491 C 149.128 25.616,147.009 27.208,145.271 29.761 L 143.876 31.811 143.876 59.915 L 143.876 88.019 145.887 90.309 C 150.462 95.520,159.045 97.094,165.457 93.899 C 171.168 91.053,171.163 91.069,171.163 76.195 L 171.163 63.256 166.202 63.256 L 161.240 63.256 161.240 72.744 C 161.240 82.918,161.014 83.721,158.140 83.721 C 155.029 83.721,155.039 83.794,155.039 59.398 L 155.039 36.563 156.589 35.856 C 160.520 34.065,161.240 35.521,161.240 45.258 L 161.240 53.953 166.202 53.953 L 171.163 53.953 171.163 41.779 L 171.163 29.604 169.020 27.583 C 165.107 23.892,157.770 22.537,152.284 24.491 M176.744 59.535 L 176.744 94.264 178.140 94.289 C 178.907 94.304,181.419 94.374,183.721 94.445 L 187.908 94.574 187.907 79.535 L 187.907 64.496 191.008 64.496 L 194.109 64.496 194.109 79.380 L 194.109 94.264 199.690 94.264 L 205.271 94.264 205.271 59.535 L 205.271 24.806 199.669 24.806 L 194.066 24.806 194.109 38.295 C 194.133 45.713,194.143 52.147,194.131 52.592 C 194.115 53.168,193.260 53.347,191.163 53.212 L 188.217 53.023 188.050 38.915 L 187.884 24.806 182.314 24.806 L 176.744 24.806 176.744 59.535 M215.807 25.891 C 215.799 27.038,215.176 33.838,212.120 66.150 C 211.082 77.121,210.233 87.935,210.233 90.181 L 210.233 94.264 215.444 94.264 L 220.656 94.264 221.055 87.597 C 221.274 83.930,221.511 80.233,221.580 79.380 C 221.694 77.972,221.997 77.812,224.869 77.645 L 228.032 77.461 228.430 81.676 C 228.649 83.995,228.830 87.775,228.833 90.078 L 228.837 94.264 234.515 94.264 L 240.193 94.264 239.784 85.426 C 239.559 80.566,239.103 74.217,238.771 71.318 C 238.439 68.419,237.460 58.256,236.596 48.734 C 235.732 39.212,234.850 29.933,234.637 28.114 L 234.248 24.806 225.031 24.806 C 216.669 24.806,215.813 24.907,215.807 25.891 M244.961 59.535 L 244.961 94.264 250.259 94.264 L 255.556 94.264 255.375 75.658 C 255.258 63.649,255.410 57.126,255.804 57.257 C 256.140 57.369,257.930 65.724,259.782 75.823 L 263.150 94.186 269.310 94.380 C 272.699 94.486,275.568 94.416,275.686 94.222 C 275.805 94.029,275.847 78.401,275.780 59.494 L 275.659 25.116 270.543 24.936 L 265.426 24.756 265.426 43.076 C 265.426 67.443,265.120 67.506,260.812 44.031 C 259.279 35.674,257.841 27.930,257.617 26.822 L 257.209 24.806 251.085 24.806 L 244.961 24.806 244.961 59.535 M281.700 59.690 C 281.851 92.472,281.926 94.569,282.946 94.496 C 283.543 94.453,285.845 94.384,288.062 94.341 L 292.093 94.264 292.093 75.535 C 292.093 64.183,292.317 57.038,292.661 57.395 C 293.154 57.907,295.167 68.247,298.690 88.372 C 299.228 91.442,299.713 94.006,299.769 94.069 C 299.824 94.133,302.655 94.241,306.059 94.310 L 312.248 94.435 312.397 59.621 L 312.546 24.806 307.281 24.806 L 302.016 24.806 302.016 43.101 C 302.016 64.282,301.427 66.523,299.250 53.643 C 298.731 50.574,298.037 46.806,297.708 45.271 C 297.379 43.736,296.660 39.969,296.109 36.899 C 295.558 33.829,294.828 29.853,294.487 28.062 L 293.866 24.806 287.703 24.806 L 281.540 24.806 281.700 59.690 M318.140 59.535 L 318.140 94.264 329.302 94.264 L 340.465 94.264 340.465 88.682 L 340.465 83.101 334.884 83.101 L 329.302 83.101 329.302 73.798 L 329.302 64.496 334.574 64.496 L 339.845 64.496 339.845 58.915 L 339.845 53.333 334.574 53.333 L 329.302 53.333 329.302 44.651 L 329.302 35.969 334.470 35.969 C 340.736 35.969,340.196 36.544,339.954 30.132 L 339.754 24.806 328.947 24.806 L 318.140 24.806 318.140 59.535 M344.956 59.567 L 345.116 94.327 355.969 94.327 L 366.822 94.327 366.822 88.869 L 366.822 83.411 361.394 83.411 L 355.967 83.411 355.968 54.109 L 355.969 24.806 350.382 24.806 L 344.796 24.806 344.956 59.567 M45.640 28.590 C 46.630 29.682,46.855 31.066,47.025 37.127 C 47.284 46.296,46.506 47.752,41.350 47.752 L 38.140 47.751 38.140 37.519 L 38.140 27.286 41.299 27.287 C 43.722 27.287,44.735 27.591,45.640 28.590 M79.372 35.039 C 80.174 37.767,80.853 40.270,80.880 40.600 C 80.908 40.931,79.326 41.213,77.364 41.228 C 75.403 41.242,73.798 41.178,73.798 41.084 C 73.798 39.782,77.195 29.218,77.497 29.579 C 77.726 29.853,78.570 32.310,79.372 35.039 M225.968 41.395 C 226.167 44.039,226.484 49.411,226.674 53.333 C 226.864 57.256,227.175 61.791,227.366 63.411 L 227.713 66.357 225.174 66.357 C 222.221 66.357,222.213 66.322,223.216 57.054 C 223.530 54.155,223.977 48.364,224.210 44.186 C 224.692 35.528,225.439 34.344,225.968 41.395 M31.125 65.031 C 30.587 65.372,30.377 66.574,30.505 68.587 L 30.698 71.628 37.671 71.803 L 44.644 71.979 40.004 78.625 C 37.452 82.280,34.244 86.873,32.876 88.830 C 30.776 91.833,30.388 92.874,30.388 95.497 L 30.388 98.605 42.823 98.605 L 55.259 98.605 55.071 95.349 L 54.884 92.093 47.552 91.918 C 43.519 91.822,40.310 91.540,40.420 91.293 C 40.530 91.046,42.853 87.671,45.581 83.794 C 48.310 79.917,51.445 75.454,52.549 73.876 C 54.851 70.583,55.432 65.578,53.593 64.873 C 52.102 64.300,32.054 64.442,31.125 65.031 M65.891 64.907 C 65.298 65.146,65.116 69.138,65.116 81.912 L 65.116 98.605 68.527 98.605 L 71.938 98.605 71.938 89.302 C 71.938 84.186,72.147 80.002,72.403 80.005 C 72.659 80.008,74.812 83.846,77.188 88.533 C 82.426 98.867,82.184 98.605,86.467 98.605 L 89.922 98.605 89.922 81.889 L 89.922 65.172 87.756 64.766 C 86.564 64.543,84.897 64.533,84.051 64.746 L 82.513 65.132 82.342 74.581 L 82.171 84.031 79.457 78.760 C 75.092 70.278,72.368 65.459,71.664 64.971 C 70.933 64.463,67.096 64.421,65.891 64.907 " stroke="none" fill="#000000" fill-rule="evenodd"></path></g></svg>