<?xml version="1.0" encoding="UTF-8" standalone="no"?>
<!-- Created with Inkscape (http://www.inkscape.org/) -->

<svg
   xmlns:dc="http://purl.org/dc/elements/1.1/"
   xmlns:cc="http://creativecommons.org/ns#"
   xmlns:rdf="http://www.w3.org/1999/02/22-rdf-syntax-ns#"
   xmlns:svg="http://www.w3.org/2000/svg"
   xmlns="http://www.w3.org/2000/svg"
   version="1.1"
   width="300"
   height="90.507248"
   id="svg3654">
  <defs
     id="defs3656">
    <clipPath
       id="clipPath2118">
      <path
         d="m 425.741,276.883 169.267,0 0,51.066 -169.267,0 L 425.741,276.883 Z"
         id="path2120" />
    </clipPath>
  </defs>
  <metadata
     id="metadata3659">
    <rdf:RDF>
      <cc:Work
         rdf:about="">
        <dc:format>image/svg+xml</dc:format>
        <dc:type
           rdf:resource="http://purl.org/dc/dcmitype/StillImage" />
        <dc:title></dc:title>
      </cc:Work>
    </rdf:RDF>
  </metadata>
  <g
     transform="translate(-269.20872,-473.77116)"
     id="layer1">
    <g
       transform="matrix(1.4178866,0,0,1.4178866,-474.7227,-401.66882)"
       id="g3589">
      <path
         d="m 736.25875,681.25845 -211.5825,0 0,-63.8325 211.5825,0 L 736.25875,681.25845 Z"
         id="path2108"
         style="fill:#ffffff;fill-opacity:1;fill-rule:nonzero;stroke:none" />
      <path
         d="m 734.25125,678.9922 -65.39125,0 0,-59.4075 65.39125,0 L 734.25125,678.9922 Z"
         id="path2110"
         style="fill:#ef2c30;fill-opacity:1;fill-rule:nonzero;stroke:none" />
      <path
         d="m 666.60375,678.9922 -139.78875,0 0,-59.4075 139.78875,0 L 666.60375,678.9922 Z"
         id="path2112"
         style="fill:#000000;fill-opacity:1;fill-rule:nonzero;stroke:none" />
      <g
         transform="matrix(1.25,0,0,-1.25,-7.5,1027.3622)"
         id="g2114">
        <g
           clip-path="url(#clipPath2118)"
           id="g2116">
          <g
             transform="translate(500.4257,313.4241)"
             id="g2122">
            <path
               d="m 0,0 -15.995,0 c -7.48,-0.002 -15.113,0 -16.889,0 -3.368,0.007 -5.596,-1.768 -5.916,-4.419 -0.117,-0.98 -0.229,-1.843 -0.229,-1.843 l 43.812,0 c 0,0 0.082,0.645 0.148,1.164 C 5.262,-2.425 4.13,0 0,0"
               id="path2124"
               style="fill:#ffffff;fill-opacity:1;fill-rule:nonzero;stroke:none" />
          </g>
          <g
             transform="translate(504.91499,304.7765)"
             id="g2126">
            <path
               d="M 0,0 C 0,0 -0.095,-0.886 -0.232,-1.849 -0.498,-3.76 -1.919,-5.181 -4.571,-5.181 l -9.323,0 -1.06,-8.489 -7.421,0 L -20.696,0 0,0 Z"
               id="path2128"
               style="fill:#ffffff;fill-opacity:1;fill-rule:nonzero;stroke:none" />
          </g>
          <g
             transform="translate(440.808,313.4258)"
             id="g2130">
            <path
               d="m 0,0 19.869,-0.002 -0.777,-6.261 -19.868,0 L 0,0 Z"
               id="path2132"
               style="fill:#ffffff;fill-opacity:1;fill-rule:nonzero;stroke:none" />
          </g>
          <g
             transform="translate(439.73599,304.7765)"
             id="g2134">
            <path
               d="m 0,0 19.867,0 -0.642,-5.181 -12.44,0 -0.321,-2.56 12.444,0 -0.739,-5.929 -19.868,0 L 0,0 Z"
               id="path2136"
               style="fill:#ffffff;fill-opacity:1;fill-rule:nonzero;stroke:none" />
          </g>
          <g
             transform="translate(507.4995,313.4241)"
             id="g2138">
            <path
               d="m 0,0 16.199,0 c 2.561,0 5.227,-1.191 4.7,-5.298 -0.099,-0.74 -0.124,-0.964 -0.124,-0.964 l -21.554,0 L 0,0 Z"
               id="path2140"
               style="fill:#ffffff;fill-opacity:1;fill-rule:nonzero;stroke:none" />
          </g>
          <g
             transform="translate(506.4202,304.7765)"
             id="g2142">
            <path
               d="M 0,0 7.435,-0.003 5.739,-13.665 -1.692,-13.67 0,0 Z"
               id="path2144"
               style="fill:#ffffff;fill-opacity:1;fill-rule:nonzero;stroke:none" />
          </g>
          <g
             transform="translate(520.5399,304.7765)"
             id="g2146">
            <path
               d="M 0,0 7.428,-0.003 5.733,-13.665 -1.701,-13.67 0,0 Z"
               id="path2148"
               style="fill:#ffffff;fill-opacity:1;fill-rule:nonzero;stroke:none" />
          </g>
          <g
             transform="translate(477.4229,304.7735)"
             id="g2150">
            <path
               d="m 0,0 c -1.286,0 -13.784,0.003 -16.318,0.003 -0.552,-3.567 1.235,-5.18 3.762,-5.18 1.377,0 10.053,0.005 10.053,0.005 l -0.319,-2.566 -14.458,0 -0.733,-5.929 c 0,0 15.74,-10e-4 16.378,0 0.526,0.043 4.21,0.139 5.467,3.152 0.407,0.978 0.77,4.482 0.871,5.216 C 5.289,-1.022 2.329,0 0,0"
               id="path2152"
               style="fill:#ffffff;fill-opacity:1;fill-rule:nonzero;stroke:none" />
          </g>
          <g
             transform="translate(566.5997,307.52499)"
             id="g2154">
            <path
               d="m 0,0 c 0.571,4.719 -1.17,6.018 -5.637,6.018 l -11.507,0 -0.601,-5.003 10.653,0 c 0.792,0 1.045,-0.507 0.917,-1.583 -0.125,-0.983 -0.411,-1.744 -1.331,-1.744 l -6.052,0 -0.609,-5.065 5.933,0 c 0.824,0 1.173,-0.539 1.014,-1.837 -0.159,-1.299 -0.506,-1.931 -1.488,-1.931 l -9.742,0 -0.6,-5.005 10.722,0 c 6.523,0 6.871,4.306 7.22,7.061 0.191,1.458 0.381,3.169 -1.616,4.307 C -0.792,-3.956 -0.348,-2.753 0,0"
               id="path2156"
               style="fill:#ffffff;fill-opacity:1;fill-rule:nonzero;stroke:none" />
          </g>
          <g
             transform="translate(579.216,296.3795)"
             id="g2158">
            <path
               d="m 0,0 c 0.634,0 0.855,0.221 0.918,0.887 l 1.299,10.39 c 0.063,0.662 -0.095,0.885 -0.759,0.916 l -5.83,0 L -5.861,0 0,0 z m -12.511,-5.004 2.661,22.171 11.941,0 c 4.623,0 6.587,-2.662 6.08,-6.778 L 7.126,1.773 C 6.62,-2.343 4.022,-5.004 -0.602,-5.004 L -12.511,-5.004 Z"
               id="path2160"
               style="fill:#ffffff;fill-opacity:1;fill-rule:nonzero;stroke:none" />
          </g>
        </g>
      </g>
    </g>
  </g>
</svg>
