<svg xmlns="http://www.w3.org/2000/svg" role="img" viewBox="-0.87 59.63 513.24 392.24"><path d="M108.6 69.78c12.53-1.33 25.4 1.92 36.16 8.4 14.07 8.38 24.35 22.95 27.24 39.09 2.67 11.31.85 23.3-3.47 33.96-6.21 14.92-18.9 27.08-34.18 32.42-12.85 4.71-27.36 4.71-40.17-.13-14.3-5.05-26.22-16.15-32.78-29.76-5.61-12-7.37-25.94-4.08-38.84 3.4-15.27 13.47-28.8 26.86-36.8 7.4-4.55 15.83-7.2 24.42-8.34zM53.89 199.57c36.89-.46 73.79-1.04 110.69-1.23-3.74 18.94-7.01 37.94-10.71 56.88-2.6 14.19-5.35 28.36-7.93 42.55-1.96 10.42-3.81 20.86-5.82 31.27-6.86 37.14-13.65 74.31-20.89 111.39-36.61-.26-73.22-.44-109.83-.84 1.37-3.78 1.79-7.81 2.27-11.78l.52-.76c4.76-28.4 10.5-56.65 15.55-85 7.97-42.48 15.54-85.06 23.63-127.52.55-5.04 2.24-9.89 2.52-14.96z" fill="#be0000"/><path fill="#939393" d="M170.28 198.16c25.9.18 51.8.01 77.69.22 1.76-.08 2.22 2.15 2.21 3.52.06 15.06.05 30.12.09 45.18-.1 3.54 3.1 6.85 6.7 6.57 26.69-.26 53.37-.9 80.06-1.24 2.95-.2 5.95 1.68 6.93 4.49 13.56 38.01 27.31 75.94 40.92 113.93 4.53-13.22 8.7-26.55 13-39.84 7.69-24.31 15.63-48.54 23.49-72.79 1.02-2.58 4.01-3.78 6.64-3.56 24.89.1 49.77.17 74.65.19-5.22 15.04-11.33 29.78-16.92 44.69-17.13 44.9-34.32 89.78-51.49 134.66-1.2 3.93-5.03 7.03-9.24 6.65-28.02-.1-56.04.36-84.05.32-3.38.11-6.63-2.11-7.73-5.3-17.16-44.31-34.1-88.7-51.29-133.01-.82-3.04-3.48-5.87-6.88-5.34-6.69.81-13.46.83-20.14 1.79-2.78.14-4.6 3.06-4.36 5.68-.03 21.68-.12 43.38-.05 65.07.12 9.7 8.07 18.64 17.74 19.69 9.46.61 18.95.56 28.43.8-.1 17.04-.23 34.08-.25 51.11-26.14.12-52.27 1.17-78.41.83-12.15-1.08-23.76-6.6-32.54-15.02-9.64-9.57-15.42-22.78-15.67-36.38-.33-31.12-.45-62.24-.52-93.36-7.79.03-15.57.07-23.35.06 2.58-14.19 5.33-28.36 7.93-42.55 5.61-.02 11.22.01 16.83-.02-.17-19.01-.43-38.02-.42-57.04z"/></svg>