<?xml version="1.0" encoding="UTF-8" standalone="no"?>
<svg
   xmlns:dc="http://purl.org/dc/elements/1.1/"
   xmlns:cc="http://creativecommons.org/ns#"
   xmlns:rdf="http://www.w3.org/1999/02/22-rdf-syntax-ns#"
   xmlns:svg="http://www.w3.org/2000/svg"
   xmlns="http://www.w3.org/2000/svg"
   xmlns:sodipodi="http://sodipodi.sourceforge.net/DTD/sodipodi-0.dtd"
   xmlns:inkscape="http://www.inkscape.org/namespaces/inkscape"
   version="1.1"
   id="Layer_1"
   x="0px"
   y="0px"
   width="1000"
   height="653.89764"
   viewBox="-202.36 111.622 1000 653.89763"
   enable-background="new -202.36 111.622 1000 618.648"
   xml:space="preserve"
   sodipodi:docname="MTV-2021.svg"
   inkscape:version="1.0.2 (e86c870879, 2021-01-15)"><metadata
   id="metadata25"><rdf:RDF><cc:Work
       rdf:about=""><dc:format>image/svg+xml</dc:format><dc:type
         rdf:resource="http://purl.org/dc/dcmitype/StillImage" /></cc:Work></rdf:RDF></metadata><defs
   id="defs23">
	
	
	
	
	

		
		
	
		
		
	</defs><sodipodi:namedview
   pagecolor="#ffffff"
   bordercolor="#666666"
   borderopacity="1"
   objecttolerance="10"
   gridtolerance="10"
   guidetolerance="10"
   inkscape:pageopacity="0"
   inkscape:pageshadow="2"
   inkscape:window-width="1366"
   inkscape:window-height="705"
   id="namedview21"
   showgrid="false"
   inkscape:zoom="0.5"
   inkscape:cx="454"
   inkscape:cy="309.32401"
   inkscape:window-x="-8"
   inkscape:window-y="-8"
   inkscape:window-maximized="1"
   inkscape:current-layer="Layer_1" />
<path
   id="polygon2"
   style="fill:#000000;stroke-width:1.16226"
   d="M -202.36,111.622 V 765.51967 H 174.30848 V 540.13831 L 297.54466,663.56743 420.97152,540.13831 v 225.38136 h 51.29165 c 0.4995,-17.72719 0.83895,-41.09102 0.55844,-51.076 -0.38704,-10.44642 -0.96704,-35.59586 -0.96704,-49.13738 0,-75.44829 6.57631,-94.02289 6.57631,-202.74676 0,-32.50268 -7.34957,-40.43403 -17.79715,-40.43403 -11.80161,0 -41.40059,22.4433 -63.26159,37.91882 -35.01665,24.76434 -53.97556,44.69037 -76.60947,44.69037 -13.54268,0 -21.08897,-5.99666 -29.60138,-16.83011 -1.73991,-1.93633 -6.19041,-11.02579 -6.19041,-18.18532 0,-8.12538 3.09332,-19.34553 15.4749,-26.69801 13.34858,-7.93244 28.05306,-6.38506 59.77935,-25.53799 37.53295,-22.6339 82.41415,-48.94343 89.57369,-53.58667 12.96155,-6.77134 9.86334,-17.21744 9.86334,-26.89095 0,-20.894 18.76811,-28.24617 35.0177,-28.24617 15.47902,0 25.15221,5.80339 27.47208,6.77155 5.80434,-3.2892 20.89319,-11.80135 49.13966,-29.21321 34.82139,-21.4728 34.24085,-38.49895 55.90892,-43.14219 23.99027,-5.22321 39.27178,18.18583 39.27178,34.62953 0,24.57023 -31.34074,38.88499 -47.20331,47.78443 -44.30313,24.95611 -59.7787,35.40393 -75.64243,45.65741 0.77407,9.86529 0.77409,32.88785 0.77409,52.62191 0,32.88738 9.86561,94.40878 9.86561,128.45727 0,40.43396 -1.74339,90.73175 -1.74339,103.1145 0,20.11877 2.13049,42.94863 4.64678,59.19822 1.25268,12.77504 2.89634,33.74454 3.80459,50.88078 H 797.64 V 450.43522 c -0.45127,0.88721 -0.90508,1.74811 -1.35521,2.64461 -20.50696,41.01509 -46.81575,86.28193 -66.74158,155.54117 -5.41731,20.31403 -7.54677,35.59599 -7.9338,55.71824 -0.77175,34.24143 -49.71821,47.97734 -76.80242,8.89858 -22.24804,-32.11449 -47.97977,-146.643 -50.88078,-160.18569 -12.38158,-55.52245 -17.02194,-75.83599 -18.57123,-96.34296 -2.12811,-26.31014 8.51107,-41.40009 31.92137,-47.39853 24.18088,-6.38431 43.91634,5.80531 45.85035,32.30955 3.67507,49.91105 6.77056,88.79687 11.60674,111.43194 1.54697,7.54657 5.99531,10.25379 10.83266,10.25379 6.3843,0 10.06092,-4.25645 12.18786,-9.09379 C 696.85772,494.3521 720.41095,410.21145 797.64,312.30075 V 111.622 H 425.22785 L 297.54466,239.11224 170.05215,111.622 Z" />
</svg>
