<?xml version="1.0" encoding="UTF-8" standalone="no"?><svg version="1.1" width="850.3468" height="565.41559" xml:space="preserve" viewBox="0 0 850.3468 565.41558" xmlns="http://www.w3.org/2000/svg" xmlns:svg="http://www.w3.org/2000/svg"><path d="M255.62402 334.31359c0-39.61405-42.01705-58.68908-91.93512-58.68908-53.39807 0-102.39213 23.65703-120.375153 60.33908-4.963007 9.77302-7.54201 20.58403-7.52801 31.54604-.227 9.47902 2.396003 18.80703 7.52801 26.77804 7.70501 11.37701 21.466028 18.52802 41.652054 18.52802 24.776029 0 44.411059-13.57601 44.411059-37.23405 0 0 .364-6.598-7.34101-6.598-6.23901 0-7.89301 4.399-7.70801 6.598.922 18.52503-10.09201 33.38305-29.728039 33.38305-22.014029 0-31.197041-18.70803-31.197041-38.69805 0-40.90206 30.82904-68.05009 62.94208-79.78611 15.00702-5.667 30.94404-8.47001 46.98506-8.25901 36.33305 0 66.06109 13.94202 66.06109 51.36107 0 31.17504-26.24003 57.77107-57.62307 60.15708l1.284-4.21701c6.42501-22.92903 14.31502-48.05406 27.15703-66.58008.739-1.10701 2.02-2.93601 3.48901-4.76801l-1.83301-2.203c-2.746 1.666-5.383 3.503-7.89701 5.501-60.18307 46.95606-62.01108 179.01124-142.209182 179.01124-2.762004 0-5.519007-.185-8.256011-.551-16.696022-2.75001-25.510033-13.94102-25.510033-29.52404 0-3.11801 1.103001-7.33901 1.103001-9.72001.127-4.43001-3.361004-8.12301-7.79101-8.25201-.035-.001-.068-.001-.101-.001h-.915002c-7.155009 0-10.0920128 5.678-10.2760131 13.75401-.5480007 23.29403 16.6960221 36.86205 43.3090571 39.43405 2.933004.182 5.870007.36401 8.990012.36401 62.571081 0 100.923131-47.32007 117.257151-104.72914 8.27301-.97 16.44102-2.68701 24.40303-5.13101 29.00004-8.08001 61.65208-27.51203 61.65208-61.81408Z"/><path d="M435.91799 260.46827c-2.00193-.8304-5.28367-4.5127.17586-14.76662l12.68246-26.50632c.38508-.8011-.54058-1.8041-1.11862-1.12349l-11.0892 11.14946c-5.24705 5.47663-14.14789 20.87012-15.8714 23.71876l-13.47214 22.2704c1.00055-.03175 1.83828.7547 1.87003 1.75527.00978.32972-.0692.65537-.23039.94357l-12.31366 20.68206c-3.00656 5.129 2.39516 8.7144 3.12706 7.53392 19.35422-31.1737 30.61114-28.68492 30.61114-28.68492l6.4609-14.9612c.34031-.74981.00815-1.63314-.74166-1.97345-.02769-.01383-.05863-.02522-.09038-.03744ZM479.91989 0c-110.65603 0-200.3597 89.65971-200.3597 200.2612-.05862 42.81571 13.67731 84.512 39.17168 118.90963 8.40503-3.62774 13.07568-9.05063 16.41197-13.2035l37.30569-47.68824c.78563-1.00545 1.81144-1.79597 2.98379-2.29991l5.61583-2.41552 61.34034-77.76859 8.89433-6.95995 18.27712-25.4276c.4722-.65781 1.04779-1.23667 1.70479-1.71293l7.97437-5.79413c1.97018-1.43124 4.63075-1.45403 6.62373-.05536l9.6767 6.789c5.13388 3.60088 9.29487 8.41643 12.1142 14.0168l38.76054 68.04954c.63258 1.29854 1.70803 2.32841 3.03182 2.90482 7.60148 3.78242 12.24527 4.45083 22.19388 15.25264 4.64215 5.03619 24.98391 27.77555 53.49217 63.11595 4.14308 5.66958 9.68971 10.16355 16.09445 13.0423 25.41701-34.37159 39.10574-76.006 39.0455-118.75495C680.27309 89.65891 590.57346 0 479.91989 0ZM333.59374 211.29913l-12.99102-4.21718-8.02483 11.03954v-13.64311l-12.99184-4.21799 12.99184-4.21799v-13.6472l8.02483 11.04199 12.99102-4.21717-8.02646 11.04118Zm-3.07984 44.65399-4.21961 12.97962-4.21962-12.97962h-13.6537l11.04525-8.02239-4.21881-12.9788 11.04606 8.0224 11.04688-8.0224-4.21962 12.9788 11.04688 8.02239Zm2.60764-103.36959 4.21963 12.97879-11.04688-8.0224-11.04606 8.0224 4.2188-12.97879-11.04525-8.0224h13.6537l4.21961-12.9788 4.22043 12.9788h13.65372Zm21.92524-29.35984-8.02077-11.04199-12.99101 4.21718 8.02564-11.04037-8.02564-11.04117 12.99101 4.21717 8.02565-11.04118v13.64801l12.99101 4.20984-12.99101 4.21881v13.64719Zm34.1469-47.7778-4.21963 12.97961-4.21962-12.9788h-13.65452l11.04688-8.02239-4.2188-12.97963 11.04606 8.02077 11.04525-8.02238-4.21881 12.99017 11.04689 8.02242h-13.65451v-.00977Zm43.02901-21.91466-8.02567 11.04199V50.92929l-12.99183-4.21718 12.99183-4.21879V28.84611l8.02567 11.042 12.9853-4.21717-8.02564 11.04117 8.02646 11.04037Zm54.52447-12.50986 4.2196 12.97881-11.04687-8.02241-11.04688 8.02241 4.21472-12.9731-11.04524-8.02241h13.65372l4.22124-12.97879 4.21962 12.97879h13.6537Zm48.8907 9.90792v13.6472l-8.0224-11.042-12.99019 4.21799 8.02566-11.04037-8.02483-11.04117 12.991 4.21717 8.0224-11.042v13.64721l12.99101 4.21879Zm90.60249 138.29073 12.99019 4.21717 8.02321-11.04199v13.6472l12.99182 4.21799-12.99182 4.21799v13.64637l-8.02321-11.04037-12.99019 4.21718 8.0346-11.04117ZM574.86409 88.42875l-4.22205-12.9796h-13.6529l11.04281-8.02242-4.20985-12.98041 11.04199 8.0224 11.042-8.02078-4.21066 12.97879 11.04362 8.02242h-13.65372Zm29.92811 34.79821v-13.64638l-12.99103-4.21882 12.99103-4.20985v-13.6537l8.02239 11.04119 12.99101-4.21718-8.0224 11.04117 8.0224 11.04036-12.99101-4.21716Zm24.52635 21.33823 4.22368-12.97879 4.22207 12.97879h13.6529l-11.042 8.02241 4.22206 12.9788-11.05339-8.02241-11.04281 8.02241 4.22206-12.9788-11.05421-8.02241Zm8.44494 111.38793-4.22206 12.97962-4.2237-12.97962h-13.65289l11.05421-8.02239-4.22207-12.9788 11.04282 8.0224 11.05339-8.0224-4.22206 12.9788 11.04199 8.02239Zm-85.2724 60.04345c.96231-1.39867 2.52624-5.23484-.4095-12.34379l-8.86583-23.83192c-1.20328-3.04238 1.43205-4.88801 3.20034-2.8877 0 0 16.75634 19.3127 21.08666 27.37661l8.26339 13.71234c7.10895.45917 26.72776.99404 45.61304.99404-1.90179-1.88795-3.65786-3.91675-5.25681-6.06849-32.22556-39.93532-52.66337-62.15039-52.86772-62.37021-6.53092-7.09675-9.5497-8.4604-14.53132-10.72855-.72135-.32727-1.50372-.68063-2.30888-1.06408v6.06281c.04966.40951-.24341.78157-.65374.83042-.33135.03907-.64968-.14654-.77749-.45511l-47.37808-83.19067-.13189-.26295c-1.97587-3.9184-4.88801-7.28888-8.4783-9.81186l-4.62181-3.24754-22.60257 52.12116c2.70046-.00081 4.89127 2.18756 4.89289 4.88801.00081.66841-.13595 1.3303-.40218 1.94414l-20.88315 48.28746h19.16942c7.40854 0 14.74708 1.4418 21.60364 4.24974l5.05248 2.07031s-15.24451 31.35119-15.24451 47.85923c.02198 3.00249.44126 5.9879 1.2448 8.88048h35.14014l-1.62745-9.89569c13.78478 3.07738 27.73075 5.37649 41.77362 6.88669v-.00488Z"/><path d="M849.61281 348.06761h-22.02903l-4.94901 11.55701-8.62901 19.44103h-10.26901l-3.13301 6.60401h10.65202l-12.85302 28.43003c-9.16101 19.99103-23.47903 39.61706-31.73804 39.61706-1.83201 0-2.94001-.738-2.94001-2.56501 0-1.827.547-3.49 2.57101-8.62301 2.571-6.05701 6.79601-14.85802 9.91401-21.27603 4.58001-9.35301 11.92402-23.84303 11.92402-30.99604 0-7.15401-4.58101-12.84101-13.57902-12.84101-10.09102 0-19.26703 6.059-27.71804 14.85402l5.51101-13.20402h-20.72903l-16.88902 38.51705c-6.78201 13.57302-20.55303 36.13305-29.18204 36.13305-1.832 0-2.571-1.103-2.571-2.93501.179-1.647.612-3.257 1.286-4.771.738-1.65001 10.83001-25.30904 10.83001-25.30904l18.35103-42.00205H691.0596l-17.80503 40.89805c-5.496 12.65802-19.44302 34.11705-28.44203 34.11705-1.567.153-2.96401-.992-3.11701-2.56301v-.741c0-2.198 1.65501-6.23601 2.94101-9.17201l9.35301-20.53803 19.26602-42.00205h-22.19202l-4.41801 9.53701c-3.294 6.41801-8.80601 13.93802-17.61102 13.93802-4.22501 0-6.23501-1.646-7.15101-3.30001-1.285-14.12301-10.28302-21.64402-23.49303-21.64402-18.35103 0-31.38104 10.82101-40.01106 24.02903-5.653 9.10301-10.09401 18.90502-13.20601 29.15804-7.89301 13.02601-16.14602 23.11603-22.75403 23.11603-1.65301 0-2.75601-.922-2.75601-3.12001 0-2.201 2.20401-7.15101 2.93801-8.99201l14.49702-30.81104c4.037-9.53301 6.79601-15.77002 6.79601-22.00803 0-6.60401-4.58001-11.37601-12.11602-11.37601-10.46001 0-21.84003 6.057-30.83004 15.95702.305-1.571.427-3.17301.366-4.77101 0-7.33801-3.66701-11.19101-11.19502-11.19101-9.53901 0-19.44702 5.692-28.43803 15.95802l5.87301-14.31302h-20.18903l-17.06202 38.52805c-8.07301 18.16002-21.10203 36.13905-28.44504 36.13905-1.649 0-2.751-.924-2.751-3.12201 0-3.483 3.854-12.10401 5.32-15.59002l22.57303-51.17007c1.651-3.85-9.17801-6.238-22.94003-6.238-14.12902 0-28.62704 6.97301-39.26705 15.95702-7.52301 6.23301-13.02902 9.35401-15.78702 9.35401-.899.192-1.785-.381-1.979-1.279-.026-.122-.038-.246-.036-.37 0-3.11901 7.52301-11.92702 7.52301-18.71103 0-3.117-1.64901-5.137-5.87501-5.137-8.06901 0-17.61602 7.70501-24.58803 15.77202l5.873-14.12502H310.1091l-17.06302 38.52005c-8.07601 18.16002-21.47203 37.05405-28.81204 37.05405-1.653 0-2.749-.915-2.749-3.12001 0-3.484 3.67-11.91701 5.687-16.32402l22.57203-51.35307c1.651-3.85-9.17701-6.238-22.94203-6.238-20.36902 0-40.18905 13.75601-50.64706 27.88003-11.55902 15.21802-19.44703 31.36104-19.63303 44.56906-.18 10.63702 5.31801 17.23902 16.33102 17.23902 12.29602 0 22.20803-9.71901 27.89304-17.05802-.337 1.452-.584 2.92201-.739 4.40401 0 7.33201 2.937 12.65301 11.92701 12.65301 7.88901 0 18.35003-6.603 26.79204-17.05802l-6.79801 15.59202h21.46703l21.10502-47.87206c6.98901-15.58702 14.88002-23.65403 17.07403-23.65403.505-.097.993.233 1.091.738.01.058.016.118.016.178 0 1.652-3.30101 6.05901-3.30101 10.08701 0 4.02901 2.19501 7.15101 8.07601 7.15101 4.58001 0 9.72102-2.202 14.31002-5.14-10.82601 14.67901-18.17302 30.08404-18.17302 42.74305-.181 10.63802 5.31801 17.23902 16.33302 17.23902 11.55802 0 22.38503-11.00501 28.25704-18.34202-.221 1.704-.343 3.418-.366 5.13501 0 7.15701 4.039 13.20701 12.29501 13.20701 9.17202 0 16.51503-5.689 25.69004-16.87202l-6.79601 15.40602h22.01603l20.18302-45.67206c8.80902-19.80902 20.73403-30.45104 26.60704-30.45104 1.467-.151 2.782.915 2.935 2.38401 0 .003 0 .006.001.009v.546c-.242 2.228-.863 4.399-1.834 6.418l-28.96704 66.94809h22.57103l20.55403-46.59006c8.80301-19.98902 18.53302-29.71504 25.87203-29.71504 2.20101 0 3.12201 1.108 3.12201 3.48601-.196 2.554-.882 5.047-2.01901 7.34501l-19.82102 42.18105c-1.825 4.06001-2.94201 8.40001-3.30401 12.83602 0 6.42101 3.48501 12.11601 13.39902 12.11601 12.85402 0 22.57103-9.72101 33.57705-24.21003v3.11601c.921 11.55501 7.342 21.64303 24.40603 21.64303 20.18402 0 36.52405-13.94002 46.42406-36.12805 3.744-7.80101 6.16701-16.17302 7.16501-24.77003 2.21 1.121 4.68 1.63 7.15101 1.478 3.335.037 6.62101-.785 9.54501-2.38801l-3.48601 7.51701c-4.049 8.43902-8.45201 17.79403-11.92401 25.68604-2.199 4.666-3.50801 9.70201-3.85501 14.85002 0 7.88401 4.40201 13.57502 13.38602 13.57502 8.98401 0 21.29103-8.43802 30.09804-20.35903h.191c-.59 2.465-.901 4.98501-.931 7.51801 0 6.60501 2.024 12.84202 11.19901 12.84202 10.65302 0 18.89803-7.70501 26.97904-17.42803l-6.79601 15.40902h22.20603l17.80602-40.35105c10.09202-22.74303 20.18303-36.49605 29.53404-36.49605 1.607-.057 2.98101 1.148 3.13301 2.75001v.542c0 3.855-5.51101 14.31001-10.46102 24.76303-4.595 9.53801-8.08201 16.87102-10.46101 22.56303-2.208 4.794-3.51401 9.95201-3.85501 15.21902 0 6.96601 3.85501 12.28701 12.48502 12.28701 12.83902 0 25.87103-12.47201 32.83004-21.82802-1.57 4.485-2.433 9.18601-2.557 13.93601 0 12.84502 7.69701 19.26303 18.52702 19.26303 7.19601-.055 14.19102-2.363 20.00603-6.60001 8.43701-5.87201 15.23402-14.67402 20.92203-22.74403l-3.85501-3.672c-5.319 7.52201-11.19901 14.67702-17.25802 19.07902-3.193 2.699-7.19901 4.24901-11.37801 4.40201-4.57901 0-7.52001-2.38701-7.52001-8.25101 0-5.86301 2.748-13.75902 6.975-24.39904.176-.179 6.23401-13.75501 11.92302-26.77303 4.77201-11.01302 9.54401-21.64603 10.46101-23.84703h14.49502l2.93801-6.60401h-14.31502ZM223.67699 453.89875c-3.11801 0-5.32001-1.1-5.32001-5.13501.182-10.82301 9.17101-30.08004 20.37203-45.48906 7.88801-10.63801 18.16302-18.52102 29.17403-18.52102l-13.94801 31.17404c-10.46002 23.48103-21.83703 37.97105-30.27804 37.97105Zm137.26118 0c-3.11701 0-5.31901-1.1-5.50001-5.13501.182-10.82301 9.17201-30.08004 20.36903-45.48906 7.88601-10.63801 18.16502-18.52102 29.17503-18.52102L391.0322 415.9287c-10.64001 24.03403-21.46602 37.97105-30.09703 37.97105h.003Zm243.68831-60.70608c-.547 11.91801-11.00801 40.71005-23.30103 57.95807-4.949 6.96801-9.17601 8.98302-12.83901 8.98302-5.14301 0-6.62001-4.22101-5.88201-10.45402 1.094-10.82001 10.09201-36.13105 22.57703-53.55607 5.68801-7.88701 9.54501-11.18901 13.94702-11.18901 4.404.001 5.68901 3.671 5.498 8.25801Z"/><path d="M564.13864 509.09722c-3.81976 0-7.38002.69739-10.68359 2.08984-3.30358 1.39245-6.16965 3.32531-8.59571 5.80078-2.37444 2.47547-4.25864 5.4677-5.65234 8.97461-1.39369 3.45535-2.08984 7.22072-2.08984 11.29493 0 4.12578.69615 7.91574 2.08984 11.37109 1.3937 3.45534 3.2779 6.42102 5.65234 8.89648 2.42606 2.47547 5.29213 4.40833 8.59571 5.80078 3.30357 1.39246 6.86383 2.08985 10.68359 2.08985 3.81976 0 7.38197-.69739 10.68555-2.08985 3.30357-1.39245 6.14313-3.32531 8.51758-5.80078 2.42606-2.47546 4.31026-5.44114 5.65234-8.89648 1.39369-3.45535 2.08984-7.24531 2.08984-11.37109 0-4.07421-.69615-7.83958-2.08984-11.29493-1.34208-3.50691-3.22628-6.49914-5.65234-8.97461-2.37445-2.47547-5.21401-4.40833-8.51758-5.80078-3.30358-1.39245-6.86579-2.08984-10.68555-2.08984Zm-350.7793 1.08398v54.15039h10.14258v-36.43554l26.78906 36.43554h9.36914V510.1812h-10.14257v36.20313l-26.71289-36.20313Zm90.20508 0v54.15039h37.47461v-9.4375h-26.32617v-14.38867h22.45508v-9.35937h-22.45508V519.6187h26.32617v-9.4375Zm68.23828 0v9.4375h15.64063v44.71289h11.15039V519.6187h15.63867v-9.4375Zm72.10352 0 14.32422 54.15039h11.84765l8.9043-36.28125 8.98047 36.28125h11.84766l14.32421-54.15039h-11.84765l-8.98047 39.68555-9.83399-39.68555h-8.75l-9.75585 39.68555-8.98047-39.68555Zm176.8418 0v54.15039h11.15039v-23.67187h7.12304l15.25196 23.67187h12.62109l-16.10547-24.52148c3.40681-.92831 6.16881-2.60541 8.28516-5.0293 2.16797-2.47547 3.25195-5.6477 3.25195-9.51562 0-4.74465-1.57394-8.43231-4.72266-11.0625-3.0971-2.68177-7.20033-4.02149-12.31054-4.02149Zm81.7207 0v54.15039h11.15039v-19.88086l5.0332-5.25976 16.10547 25.14062h12.85156l-21.36914-33.18554 19.66602-20.96485h-12.31055l-19.97656 22.4336v-22.4336Zm-138.33008 8.81836c2.11635 0 4.12919.41314 6.03906 1.23828 1.90988.82516 3.56334 2.03602 4.95703 3.63477 1.3937 1.54717 2.50224 3.45543 3.32813 5.72461.8259 2.26918 1.24023 4.82368 1.24023 7.66016 0 5.67295-1.47181 10.13375-4.41406 13.38281-2.94224 3.19747-6.65959 4.79492-11.15039 4.79492-4.49079 0-8.20619-1.59745-11.14844-4.79492-2.94224-3.24906-4.41406-7.70986-4.41406-13.38281 0-5.67295 1.44531-10.13571 4.33594-13.38477 2.94224-3.24905 6.68415-4.87305 11.22656-4.87305Zm67.75977.1543h11.92382c2.5293 0 4.41351.61968 5.65235 1.85742 1.23884 1.23773 1.85742 2.81057 1.85742 4.71875 0 1.90817-.61858 3.48101-1.85742 4.71875-1.18722 1.23773-3.04688 1.85742-5.57617 1.85742h-12Z"/></svg>