<svg id="Capa_1" data-name="Capa 1" xmlns="http://www.w3.org/2000/svg" xmlns:xlink="http://www.w3.org/1999/xlink" viewBox="0 0 3595.38 1993"><defs><style>.cls-1{fill:url(#Degradado_sin_nombre_13);}.cls-2{fill:url(#Degradado_sin_nombre_15);}</style><linearGradient id="Degradado_sin_nombre_13" x1="1848.45" y1="1416.5" x2="1848.45" y2="6.25" gradientUnits="userSpaceOnUse"><stop offset="0" stop-color="#e7f6fe"/><stop offset="1" stop-color="#0095ff"/></linearGradient><linearGradient id="Degradado_sin_nombre_15" x1="1848.45" y1="6.25" x2="1848.45" y2="1416.5" gradientUnits="userSpaceOnUse"><stop offset="0" stop-color="#edf7ff"/><stop offset="1" stop-color="#0095ff"/></linearGradient></defs><path class="cls-1" d="M3024.38,6.27,2774.92,536.44,2379.3,6.25h-285v0L1701.89,505.76V6.27H831.76C520.19,6.27,417.49,184,417.49,397.49c0,231.16,259,348.2,577,585.15,62.25,46.35,33.46,94.57,15,94.57H437.1l-150,339.29h767.23c153.8,0,264-60.79,324.48-154.63V1416.5h323.12V917l392.38,499.5h266.56v0h385.45L3409.84,6.27ZM1378.77,914.65C1227.29,690.83,808.69,505.13,808.69,412.51c0-57.71,20.76-69.27,66.92-69.27h503.16ZM2433,1263,1999.64,711.35l245.57-312.58,364.6,488.58Z" transform="translate(-2.03 -6.25)"/><path class="cls-2" d="M2366.77,31.25l388.12,520.14,24.92,33.39,17.73-37.7L3040.25,31.27h330.2l-640,1360.23h-334.9v0H2106.43L1721.55,901.53l-44.66-56.86V1391.5H1403.77V1176.93l-46,71.4c-28.59,44.36-68.07,79.23-117.33,103.64-52.92,26.23-115.55,39.53-186.14,39.53H325.45l127.93-289.29h556.09c19.19,0,37.08-15.08,44.51-37.52,3.72-11.21,6.36-29.11-2.19-50.7-7.4-18.68-21.66-36-42.37-51.4C941.58,912,877.8,867.88,816.12,825.17c-110.51-76.51-206-142.59-272.4-210.79-34.07-35-58.64-68.56-75.1-102.68a257.07,257.07,0,0,1-26.13-114.21c0-53.11,6.66-101.49,19.79-143.78,14-45,35.51-83.7,64-115.07,30.76-33.85,70.48-60,118.06-77.85C696.7,41.2,759.76,31.27,831.76,31.27h845.13V578.05l44.66-56.85L2106.44,31.25h260.33m-963,964.94V318.24H875.61c-23,0-49,2.33-67.71,19.61-16.74,15.43-24.21,38.46-24.21,74.66,0,28.65,20.68,58.24,69.15,99,38.08,32,91,68.75,147.12,107.67,63,43.74,134.44,93.31,198.73,145.72,72.83,59.37,125,112.95,159.38,163.8l45.7,67.53M2438.4,1310.33l17.25-36.66L2632.43,898l6.39-13.57-9-12-364.6-488.58-19.53-26.17-20.16,25.68L1980,695.91l-12.14,15.44L1980,726.79l433.4,551.68,25,31.86M2379.3,6.25h-285v0L1701.89,505.76V6.27H831.76C520.19,6.27,417.49,184,417.49,397.49c0,231.16,259,348.2,577,585.15,62.25,46.35,33.46,94.57,15,94.57H437.1l-150,339.29h767.23c153.8,0,264-60.79,324.48-154.63V1416.5h323.12V917l392.38,499.5h266.56v0h385.45L3409.84,6.27H3024.38L2774.92,536.44,2379.3,6.25ZM1378.77,914.65C1227.29,690.83,808.69,505.13,808.69,412.51c0-57.71,20.76-69.27,66.92-69.27h503.16V914.65ZM2433,1263,1999.64,711.35l245.57-312.58,364.6,488.58L2433,1263Z" transform="translate(-2.03 -6.25)"/><path d="M2539.92,1999.25c-8.14-11.11-15.88-22.54-24.49-33.26q-78.63-97.9-157.62-195.5c-21.08-26-42.63-51.67-65.06-78.8,0,20.61-.25,39.69.05,58.76,1,62.59,2.24,125.18,3.29,187.78.26,15.55,2.95,19.44,18.47,23.31,12.1,3,24.33,5.51,36.68,8.28V1987H2200.85v-17.26c13.16-2.83,26.32-5.63,39.46-8.49,9.4-2,13.72-7.76,13.93-17.55,1.86-85.87,4-171.73,5.82-257.6.13-5.92-1.22-11.86-1.57-17.81-.68-11.71-7.75-18-18.19-20.74-13.39-3.47-27-6.14-41.25-9.32V1619.6h10.11c38.88,0,77.76.41,116.62-.25,8.95-.15,14.45,2.27,19.94,9.19q55.43,69.86,111.59,139.11c23.15,28.66,46.59,57.07,71.6,87.67,0-7.83,0-13.44,0-19-.32-42.3-.51-84.6-1.06-126.89-.19-15-1-29.93-2.07-44.85-.74-10.28-5.82-17.32-16.76-19.25-12.3-2.17-24.54-4.71-37.46-7.21v-17.47H2621v17.62c-12.35,2.49-24.33,4.5-36.11,7.37-13.09,3.2-18.61,9.64-18.88,23.18-1.15,58.24-2.21,116.49-2.74,174.74-.44,48.59-.09,97.18-.09,147.28l-19.26,8.45Z" transform="translate(-2.03 -6.25)"/><path d="M1978.39,1999.25q-123.12-153.35-246.22-306.7l-2.17,1c0,10.3-.1,20.61,0,30.91q1.24,104.89,2.54,209.77c.23,20.17,3.71,24.75,23.52,28.91,10.59,2.22,21.24,4.16,32.09,6.28V1987H1638.05v-17.23c12-2.57,24.4-5.42,36.9-7.86,10.1-2,15.75-7.19,16.16-18,.84-21.93,2.75-43.83,3.11-65.77q1.62-101.37,2.32-202.77c.14-16.75-5.48-23.78-22-28.28-12.33-3.34-24.91-5.76-37.9-8.71v-19.1c8,.73,15.79,2.11,23.55,2,34.59-.35,69.19-.62,103.75-2,9.46-.38,14.15,3.74,19.32,10.14q89.49,110.86,179.27,221.49c.75.92,1.58,1.79,3.28,3.73,0-23.26.17-45.07,0-66.87q-.42-43-1.38-85.89-.46-19.93-2.07-39.82c-.72-8.93-6.4-14.54-14.88-16.44-12.5-2.79-25.16-4.87-38.37-7.37v-17.61h148.57v17.65c-11.41,2.35-22.75,4.28-33.86,7.09-16.33,4.13-21.15,9.5-21.22,26.31-.41,92.88-.41,185.76-.55,278.64,0,13.29,0,26.59,0,39.77l-21.58,9.18Z" transform="translate(-2.03 -6.25)"/><path d="M2,1791.35c2.9-14.82,4.48-30,8.92-44.39,22.24-71.77,71.7-114,144.38-129.44,65.07-13.86,128.32-3.47,190.61,16.28,2.4.76,5.25,4.85,5.33,7.46,1.05,32.83,1.63,65.68,2.32,98.52.05,2.23,0,4.46,0,6.13-1,.75-1.28,1.1-1.57,1.13-25.88,2.41-25.56,2.31-32.95-22.41-5.06-16.93-7.73-34.84-19.9-49.07-20-23.38-45.87-32.07-75.8-32.71-36.27-.77-69.28,6.59-94.58,34.81-19.55,21.82-30.33,48.11-34.25,76.69-5.27,38.4-5.05,76.79,9.29,113.67,17.9,46,51.59,72.17,100.47,79.39,44.74,6.61,86-3.8,125.31-24.34,3.24-1.69,6.4-3.53,9.61-5.26.25-.14.65,0,1.61,0l12.83,24c-40,27.18-82.44,47.71-130.52,52.68-54.17,5.6-106.74.6-152.65-33C34.19,1934.85,14,1898.35,6,1854.54c-1.4-7.73-2.67-15.47-4-23.21Z" transform="translate(-2.03 -6.25)"/><path d="M942.79,1969.55V1987H747.41v-17.37c13.33-2.85,26.13-5.68,39-8.31,13.18-2.69,18.63-7.51,18.8-20.36.53-41.62.4-83.25.49-124.87,0-.58-.48-1.15-1-2.31H661.89c-.19,3.17-.53,6.06-.53,8.94q0,53.46.13,106.92c0,2,0,4,.13,6,1.52,19.67,4.9,23.58,24.46,27.65,10.67,2.23,21.4,4.15,32.72,6.33V1987H524.48v-17.41c11.93-2.69,24.4-5.39,36.81-8.33,13.5-3.2,16.9-6.68,18.58-20.55a235.43,235.43,0,0,0,1.61-27.85q.19-110.91,0-221.83a199.08,199.08,0,0,0-2.11-27.8c-1.16-8-5.37-14.08-14.12-15.94-13.5-2.86-27-5.94-41.06-9.07V1620.6H718.7v17.6c-13.9,3-27.67,6-41.46,9-10.38,2.21-15.43,9.5-15.54,19.17-.42,37.61-.17,75.22-.17,113.92H805.67c0-13.6,0-26.52,0-39.44q-.1-34.47-.31-68.94c-.12-16.91-5.22-23-22-26.46-11.59-2.38-23.21-4.63-35.39-7v-17.77H942.64v18.15c-13.32,2.88-26.77,5.82-40.23,8.69-9.81,2.09-15,8.2-15.07,18.11q-1,128.34-1.83,256.68c0,3,.35,6,.58,9,2,26.68,3.32,27.29,31.92,33.92C926.25,1967.05,934.69,1968.13,942.79,1969.55Z" transform="translate(-2.03 -6.25)"/><path d="M3104.8,1885.31c-11,35-21.66,69.14-31.89,101.77h-308v-17.19c12.29-2.8,25.39-5.49,38.34-8.79,13.29-3.37,18.31-9.41,18.33-23.34q.26-135.35,0-270.71c0-11.13-6.26-18.4-18.57-21.36s-25.14-5-38.35-7.55v-17.53h311.53c2,30.13,4,61,6.15,92.92-4.53,0-9.47-.26-14.37.08-5.13.35-7.45-1.59-9.22-6.62-4.71-13.37-10.19-26.46-15.56-39.59-4-9.75-12-13.78-22-13.94-36.28-.56-72.56-.93-108.83-1.47-4.81-.07-8.6.36-8.59,6.63.07,39.88,0,79.76,0,122.2,24.67-1.08,50.71-2.15,76.73-3.39,8.75-.42,13.9-6.16,16.65-13.61,4.3-11.69,7.77-23.68,11.75-36h19.55v135h-19.69c-3.14-12.46-6.22-24.84-9.39-37.21-2.12-8.29-7.71-13.52-16-14-26.82-1.41-53.68-2.16-81.19-3.18v146.87h58c16,0,32-.66,47.94.17,18.86,1,32.78-6.92,43.21-21.7,8.58-12.17,17.1-24.47,24.38-37.43,4.79-8.52,10.26-12.91,20.12-11.07C3098.42,1885.71,3101.15,1885.31,3104.8,1885.31Z" transform="translate(-2.03 -6.25)"/><path d="M1496.34,1987h-180.8c.18.51-.43-.4-.45-1.31-.09-5,0-10,0-15.83,9.23-2.21,18.46-4.17,27.56-6.65,12.1-3.3,16-9.8,11.53-21.6-7.87-20.66-16.53-41-25.39-61.28-1-2.41-5.39-4.78-8.23-4.8q-57.43-.48-114.89,0c-2.78,0-7,2.58-8.07,5q-13,31-24.9,62.52c-4.62,12.29-1.88,16.92,10.7,20.15,8.92,2.29,17.93,4.22,27.24,6.39V1987H1083.13c0-2.5.41-6.46-.1-10.31-.71-5.35,1.68-8.27,6.52-8.89,23.32-3,36.38-17.64,45.51-38,46.46-103.33,93.38-206.45,139.57-309.9,3.87-8.68,9.17-8.15,16.17-8.66s9.53,2.78,12.12,8.61c46,103.19,92.3,206.23,138.23,309.44,8.64,19.41,20.91,32.78,43,36.58C1498.87,1968.39,1498.65,1969.7,1496.34,1987Zm-180.28-141.06c-17.39-41.35-34-80.91-51.38-122.18l-52.93,122.18Z" transform="translate(-2.03 -6.25)"/><path d="M3597.42,1883.31c-11.48,35.72-22.53,70.14-33.34,103.78h-308v-17.26c14.07-3.44,28.33-7.21,42.74-10.33,8.56-1.85,12.26-6.84,12.62-15.2.46-10.64,1.63-21.27,1.65-31.9q.21-108.42,0-216.83c0-10.63-.95-21.27-1.88-31.87-.74-8.37-5-14.28-13.64-16.19-13.78-3-27.58-6-41.76-9.07v-17.83h203.14v17.78c-17.26,3-34.39,6.15-51.56,9-7.31,1.21-11.25,5.53-12.05,12.48a238.7,238.7,0,0,0-2,26.81q-.23,130.41-.09,260.8v7.79h51.51c16.65,0,33.31-.39,49.94.1,21.87.65,38.43-8.33,50.44-26.22,7.56-11.27,15.69-22.28,22-34.23,4.87-9.15,10.76-13.44,21-11.68C3590.72,1883.68,3593.42,1883.31,3597.42,1883.31Z" transform="translate(-2.03 -6.25)"/></svg>