<?xml version="1.0" encoding="UTF-8" standalone="no"?>
<!-- Created with Inkscape (http://www.inkscape.org/) -->

<svg
   xmlns:dc="http://purl.org/dc/elements/1.1/"
   xmlns:cc="http://creativecommons.org/ns#"
   xmlns:rdf="http://www.w3.org/1999/02/22-rdf-syntax-ns#"
   xmlns:svg="http://www.w3.org/2000/svg"
   xmlns="http://www.w3.org/2000/svg"
   xmlns:sodipodi="http://sodipodi.sourceforge.net/DTD/sodipodi-0.dtd"
   xmlns:inkscape="http://www.inkscape.org/namespaces/inkscape"
   width="688.41449"
   height="688.25226"
   id="svg2"
   version="1.1"
   inkscape:version="0.48.4 r9939"
   sodipodi:docname="TNT01.svg">
  <defs
     id="defs4" />
  <sodipodi:namedview
     id="base"
     pagecolor="#ffffff"
     bordercolor="#666666"
     borderopacity="1.0"
     inkscape:pageopacity="0"
     inkscape:pageshadow="2"
     inkscape:zoom="1.4"
     inkscape:cx="104.35492"
     inkscape:cy="61.48184"
     inkscape:document-units="px"
     inkscape:current-layer="layer1"
     showgrid="false"
     fit-margin-top="0"
     fit-margin-left="0"
     fit-margin-right="0"
     fit-margin-bottom="0"
     inkscape:window-width="1366"
     inkscape:window-height="706"
     inkscape:window-x="-8"
     inkscape:window-y="-8"
     inkscape:window-maximized="1" />
  <metadata
     id="metadata7">
    <rdf:RDF>
      <cc:Work
         rdf:about="">
        <dc:format>image/svg+xml</dc:format>
        <dc:type
           rdf:resource="http://purl.org/dc/dcmitype/StillImage" />
        <dc:title></dc:title>
      </cc:Work>
    </rdf:RDF>
  </metadata>
  <g
     inkscape:label="Layer 1"
     inkscape:groupmode="layer"
     id="layer1"
     transform="translate(425.57381,-109.87747)">
    <g
       transform="matrix(2.5134623,0,0,2.5134623,-518.95002,-1708.56)"
       id="layer1-9"
       inkscape:label="Layer 1">
      <path
         id="path12066"
         d="m 37.150431,860.35954 c 0,75.51168 61.498772,136.94595 136.971579,136.94595 75.51198,0 136.91934,-61.43427 136.91934,-136.94595 0,-75.47269 -61.40736,-136.88043 -136.91934,-136.88043 -75.472807,0 -136.971579,61.40774 -136.971579,136.88043 z m 21.953597,0 c 0,-63.40454 51.612472,-115.00459 115.017982,-115.00459 63.4447,0 115.04411,51.60005 115.04411,115.00459 0,63.4451 -51.59941,115.05762 -115.04411,115.05762 -63.40551,0 -115.017982,-51.61252 -115.017982,-115.05762"
         style="fill:#fddc04;fill-rule:nonzero;stroke:none"
         inkscape:connector-curvature="0" />
      <path
         id="path12068"
         d="m 136.83618,848.07144 -20.50395,0 0,53.36127 -17.918103,0 0,-53.36127 -20.530052,0 0,-15.41122 58.952105,0 0,15.41122"
         style="fill:#d22026;fill-rule:nonzero;stroke:none"
         inkscape:connector-curvature="0" />
      <path
         id="path12070"
         d="m 144.54148,832.66022 18.41436,0 23.88645,42.36642 0.18284,0 0,-42.36642 16.8733,0 0,68.77249 -18.42742,0 -23.87338,-42.87497 -0.18283,0 0,42.87497 -16.87331,0 0,-68.77249"
         style="fill:#d22026;fill-rule:nonzero;stroke:none"
         inkscape:connector-curvature="0" />
      <path
         id="path12072"
         d="m 270.64727,848.07144 -20.51701,0 0,53.36127 -17.91809,0 0,-53.36127 -20.50395,0 0,-15.41122 58.93905,0 0,15.41122"
         style="fill:#d22026;fill-rule:nonzero;stroke:none"
         inkscape:connector-curvature="0" />
    </g>
  </g>
</svg>
