<?xml version="1.0" encoding="UTF-8" standalone="no"?>
<!-- Created with Inkscape (http://www.inkscape.org/) -->
<svg
   xmlns:dc="http://purl.org/dc/elements/1.1/"
   xmlns:cc="http://web.resource.org/cc/"
   xmlns:rdf="http://www.w3.org/1999/02/22-rdf-syntax-ns#"
   xmlns:svg="http://www.w3.org/2000/svg"
   xmlns="http://www.w3.org/2000/svg"
   xmlns:sodipodi="http://sodipodi.sourceforge.net/DTD/sodipodi-0.dtd"
   xmlns:inkscape="http://www.inkscape.org/namespaces/inkscape"
   width="192"
   height="107.00002"
   id="svg2"
   sodipodi:version="0.32"
   inkscape:version="0.45.1"
   version="1.0"
   inkscape:output_extension="org.inkscape.output.svg.inkscape">
  <g
     inkscape:label="Layer 1"
     inkscape:groupmode="layer"
     id="layer1"
     transform="translate(9.9491901,-844.45416)">
    <path
       style="fill:#00428c;fill-opacity:1;fill-rule:evenodd;stroke:none"
       d="M 9.7227606,938.38999 L 4.1954707,925.44015 L -4.2361507,925.44015 L -8.0637291,949.80029 L 0.33585833,949.80029 L 2.2167769,937.32379 L 7.7739493,949.80029 L 16.173537,949.80029 L 20.001354,925.44015 L 11.601528,925.44015 L 9.7227606,938.38999 L 9.7227606,938.38999"
       id="path2179" />
    <path
       style="fill:#c60021;fill-opacity:1;fill-rule:evenodd;stroke:none"
       d="M 18.19813,917.85719 C 37.259762,917.85719 50.364992,908.75381 53.864821,888.72781 L 53.864821,888.72781 L 60.955319,848.13315 L 36.20312,848.13315 L 29.523803,886.36113 L 29.523803,886.36113 C 28.585973,891.73279 28.053827,896.863 21.459138,896.9395 C 15.430301,897.01122 15.985875,891.73279 16.924422,886.36113 L 16.924422,886.36113 L 23.602304,848.13315 L -1.1506124,848.13315 L -8.2420673,888.72781 L -8.2420673,888.72781 C -10.558074,903.8268 -0.86302404,917.85719 18.19813,917.85719 L 18.19813,917.85719"
       id="path2181" />
    <path
       style="fill:#c60021;fill-opacity:1;fill-rule:evenodd;stroke:none"
       d="M 75.705278,889.68644 L 82.556717,892.17983 L 82.556717,892.17983 C 85.126605,893.04761 87.782554,893.83651 87.333122,896.95384 C 86.869347,900.17636 82.819683,899.78191 80.381278,899.78191 C 74.689276,899.78191 68.01235,894.15685 63.642346,889.64819 L 63.642346,889.64819 L 51.854332,904.91691 L 51.854332,904.91691 C 56.44427,910.16187 69.382159,917.44362 77.954826,917.85241 C 92.733472,918.56002 108.25798,914.18763 111.40639,897.80489 C 113.64638,886.15314 107.78704,880.52808 100.44313,877.03303 L 100.44313,877.03303 L 93.503242,873.70055 L 93.503242,873.70055 C 91.464067,872.76343 87.978582,870.38718 88.231985,868.11373 C 88.547543,865.25697 91.299116,864.31269 93.467384,864.31269 C 98.798406,864.31269 103.14929,868.49144 106.83558,871.40319 L 106.83558,871.40319 L 115.94613,855.57985 L 115.94613,855.57985 C 110.04854,851.48237 101.05991,846.72031 93.29048,846.72031 C 78.473585,846.72031 67.536622,850.41856 63.623221,866.40924 C 61.024647,877.03303 66.269607,885.91408 75.705278,889.68644 L 75.705278,889.68644"
       id="path2183" />
    <path
       style="fill:#c60021;fill-opacity:1;fill-rule:evenodd;stroke:none"
       d="M 168.04432,848.12837 L 141.30554,848.12837 L 105.64745,916.75991 L 131.84596,916.75991 L 135.96256,906.6214 L 153.86811,906.6214 L 154.79087,916.75991 L 178.13741,916.75991 L 168.04432,848.12837 L 168.04432,848.12837 z M 142.60124,891.91208 L 150.6169,871.29322 L 152.37877,891.91208 L 142.60124,891.91208 L 142.60124,891.91208"
       id="path2185" />
    <path
       style="fill:#c60021;fill-opacity:1;fill-rule:evenodd;stroke:none"
       d="M 176.70305,848.62801 C 174.53239,848.62801 172.78009,850.37792 172.78009,852.55097 C 172.78009,854.71924 174.53239,856.47154 176.70305,856.47154 C 178.87371,856.47154 180.62362,854.71924 180.62362,852.55097 C 180.62362,850.37792 178.87371,848.62801 176.70305,848.62801 L 176.70305,848.62801 z M 176.71261,856.12491 C 174.70929,856.12491 173.17932,854.53277 173.17932,852.55097 C 173.17932,850.52614 174.69017,848.97464 176.71261,848.97464 C 178.72549,848.97464 180.22439,850.5357 180.22439,852.53902 C 180.22439,854.52082 178.71593,856.12491 176.71261,856.12491 L 176.71261,856.12491"
       id="path2187" />
    <path
       style="fill:#c60021;fill-opacity:1;fill-rule:evenodd;stroke:none"
       d="M 177.33417,852.73983 C 177.99397,852.63464 178.52946,852.26649 178.52946,851.51106 C 178.52946,850.67435 178.06808,850.23209 177.01861,850.23209 L 175.27826,850.23209 L 175.27826,854.86745 L 175.67748,854.86745 L 175.67748,852.72787 L 176.88234,852.72787 L 178.27606,854.86745 L 178.71832,854.86745 L 177.33417,852.73983 L 177.33417,852.73983 z M 176.66241,852.38124 L 175.67748,852.38124 L 175.67748,850.57873 L 176.95645,850.57873 L 176.95645,850.57873 C 177.51107,850.57873 178.13023,850.7891 178.13023,851.5015 C 178.13023,852.30952 177.36524,852.38124 176.66241,852.38124 L 176.66241,852.38124"
       id="path2189" />
    <path
       style="fill:#00428c;fill-opacity:1;fill-rule:evenodd;stroke:none"
       d="M 20.008048,949.80029 L 36.518678,949.80029 L 37.484478,943.62061 L 29.585958,943.62061 L 30.040171,940.6754 L 37.042218,940.6754 L 38.036705,934.5005 L 31.034658,934.5005 L 31.479308,931.61983 L 39.124424,931.61983 L 40.090224,925.44015 L 23.835626,925.44015 L 20.008048,949.80029 L 20.008048,949.80029"
       id="path2191" />
    <path
       style="fill:#00428c;fill-opacity:1;fill-rule:evenodd;stroke:none"
       d="M 168.02281,925.44015 L 161.01598,934.12995 L 161.01598,934.12995 C 160.71476,934.5244 160.32032,934.48615 160.39921,933.96978 L 160.39921,933.96978 L 161.93875,925.44015 L 153.37803,925.44015 L 148.91719,949.80029 L 157.47551,949.80029 L 159.44297,939.19562 L 159.44297,939.19562 C 159.56728,938.64339 159.97607,938.77488 160.14819,939.14542 L 160.14819,939.14542 L 164.54449,949.80029 L 173.78892,949.80029 L 168.09931,937.29749 L 177.60669,925.44015 L 168.02281,925.44015 L 168.02281,925.44015"
       id="path2193" />
    <path
       style="fill:#00428c;fill-opacity:1;fill-rule:evenodd;stroke:none"
       d="M 88.750744,925.44015 L 82.834026,938.94939 L 81.261016,925.44015 L 74.526716,925.44015 L 68.827542,939.42512 L 67.591605,925.44015 L 42.401927,925.44015 L 41.395488,931.61266 L 46.269907,931.62461 L 43.413148,949.80029 L 52.198577,949.80029 L 55.055336,931.62461 L 59.939317,931.61266 L 62.32991,949.80029 L 70.988638,949.80029 L 76.243161,936.55402 L 78.265603,949.80029 L 86.087623,949.80029 L 97.493142,925.44015 L 88.750744,925.44015 L 88.750744,925.44015"
       id="path2195" />
    <path
       style="fill:#00428c;fill-opacity:1;fill-rule:evenodd;stroke:none"
       d="M 111.25818,925.05287 C 103.91667,925.05287 97.108257,930.0277 95.905788,937.68477 C 94.674633,945.502 99.933938,950.18757 107.30892,950.18757 C 114.68151,950.18757 121.41342,945.502 122.64218,937.68477 C 123.84465,930.0277 118.59969,925.05287 111.25818,925.05287 L 111.25818,925.05287 z M 113.77308,937.33813 C 113.3356,940.116 111.01912,943.05404 108.35839,943.05404 C 105.69766,943.05404 104.29677,940.116 104.73186,937.33813 C 105.13826,934.7539 107.52646,931.24212 110.31628,931.24212 C 113.10371,931.24212 114.17948,934.7539 113.77308,937.33813 L 113.77308,937.33813"
       id="path2197" />
    <path
       style="fill:#00428c;fill-opacity:1;fill-rule:evenodd;stroke:none"
       d="M 139.76361,925.44015 L 127.32774,925.44015 L 123.5004,949.80029 L 132.09458,949.80029 L 133.32096,941.98066 L 134.82942,941.98066 L 137.44712,949.80029 L 146.23255,949.80029 L 142.29764,939.98452 L 142.29764,939.98452 C 145.74009,938.88484 148.15937,937.27119 148.73789,933.58968 C 149.7013,927.45064 145.21416,925.44015 139.76361,925.44015 L 139.76361,925.44015 z M 139.86162,932.8486 C 139.57714,934.65827 138.71175,935.51889 136.97378,935.51889 L 134.32023,935.51889 L 135.1139,930.43171 L 136.8949,930.43171 L 136.8949,930.43171 C 138.40097,930.43171 140.15566,930.97676 139.86162,932.8486 L 139.86162,932.8486"
       id="path2199" />
  </g>
</svg>
